<svg xmlns="http://www.w3.org/2000/svg" viewBox="0 0 18.636 18.636" style="enable-background:new 0 0 18.636 18.636" xml:space="preserve"><path style="fill:#000" d="M17.118 2.448v.674h-.634v-.674h-.794v.674h-.635v-.674h-.795v.674h-.636v-.674h-.792v.674h-.002v.605a13.008 13.008 0 0 0-1.689-.723c-2.096-.728-3.049-1.23-3.421-1.456V.322h-.006V0h-.369v.322h-.512V0h-.368v.322H5.95V0h-.367v.322h-.512V0h-.369v.368h.011v1.261s-.603.067-1.356.424c-1.235.581-1.408 1.236-1.408 1.236s1.143-.268 1.609-.268c.857 0 1.684.091 1.684.091.081.191.353.548 1.25 1.102 1.32.816 2.035 1.017 4.238 2.416 1.474.936 1.505 2.135 1.366 2.827-.104.101-.2.203-.314.3-1.994 1.658-3.711 1.871-5.71 3.109-2.5 1.549-4.806 4.932-5.353 5.77h.776c.595-.941 3.28-4.506 5.93-5.816 3.072-1.521 4.646-2.244 5.437-2.98.475-.438.974-1.207 1.299-1.755-.268.597-.684 1.383-1.241 2.001-.784.869-2.549 1.781-4.251 2.666l-1.602.846c-2.119 1.162-4.422 4.834-4.52 4.988l.492.016c.024-.039 2.162-3.574 4.2-4.691l1.594-.84c1.732-.9 3.521-1.83 4.354-2.746.931-1.033 1.479-2.473 1.624-2.888h1.359s-.227 2.515-2.12 3.786-2.28 1.461-3.502 2.373c-3.167 2.363-4.163 4.359-4.461 5.039h4.685c1.204-1.607 2.433-3.076 3.223-3.568 2.646-1.645 3.346-3.449 3.387-3.518v-1.42h.521V3.244h.014v-.796h-.799zM6.236 1.123l.001-.005a.28.28 0 1 1 .561 0v.005H6.8v.39h-.564v-.39zm2.241 3.273h-.325v-.18h.325v.18zm1.306.267h-.475v-.357h.475v.357zM10.91 5.73h-.415v-.325h.416l-.001.325zm1.919-.08a8.764 8.764 0 0 0-2.423-1.438c-1.809-.705-3.533-1.382-3.872-1.72a2.596 2.596 0 0 1-.506-.735h1.047c.015.013.693.572 2.343 1.185 1.493.558 2.688 1.023 3.41 1.439V5.65h.001zm3.13 1.154H14.77V5.627h.004l-.001-.009a.592.592 0 1 1 1.185 0c0 .002-.004.005-.004.009h.005v1.177zM9.634 16.53h-.653v-.357h.653v.357zm.95 1.393h-.653v-.355h.652l.001.355zm2.463-3.264h-.653v-.355h.653v.355zm.65-1.84h-.649v-.355h.649v.355zm2.848-1.541h-.652v-.355h.652v.355z"/></svg>