<?xml version="1.0" encoding="iso-8859-1"?>
<!-- Generator: Adobe Illustrator 22.1.0, SVG Export Plug-In . SVG Version: 6.00 Build 0)  -->
<svg xmlns="http://www.w3.org/2000/svg" xmlns:xlink="http://www.w3.org/1999/xlink" version="1.1" id="Layer_1_1_" x="0px" y="0px" viewBox="0 0 64 64" style="enable-background:new 0 0 64 64;" xml:space="preserve" width="512" height="512">
<linearGradient id="SVGID_1_" gradientUnits="userSpaceOnUse" x1="32" y1="63" x2="32" y2="1">
	<stop offset="0" style="stop-color:#9F2FFF"/>
	<stop offset="1" style="stop-color:#0BB1D3"/>
</linearGradient>
<path style="fill:url(#SVGID_1_);" d="M11.188,58.874L12.219,63h7.562l1-4h22.438l1,4h7.562l1.032-4.126  C54.07,58.517,55,57.371,55,56V4c0-1.654-1.346-3-3-3H12c-1.654,0-3,1.346-3,3v52C9,57.371,9.93,58.517,11.188,58.874z M18.219,61  h-4.438l-0.5-2h5.438L18.219,61z M45.781,61l-0.5-2h5.438l-0.5,2H45.781z M52,57H12c-0.551,0-1-0.449-1-1v-1h32v-2H25v-2h20v4h8v1  C53,56.551,52.551,57,52,57z M15,3h34v2H15V3z M49,53h-2V26c0-2.757-2.243-5-5-5H28c-2.757,0-5,2.243-5,5v27h-8V19h34V53z M45,49H25  v-2h20V49z M25,35h4.812c-0.353,0.608-0.6,1.282-0.721,2H25V35z M39,38c0,2.206-1.794,4-4,4s-4-1.794-4-4s1.794-4,4-4  S39,35.794,39,38z M25,39h4.09c0.121,0.718,0.369,1.392,0.721,2H25V39z M45,45H25v-2h6.69c0.95,0.631,2.087,1,3.31,1  s2.36-0.369,3.31-1H45V45z M45,41h-4.812c0.353-0.608,0.6-1.282,0.721-2H45V41z M45,37h-4.09c-0.121-0.718-0.369-1.392-0.721-2H45  V37z M45,33h-6.69c-0.95-0.631-2.087-1-3.31-1s-2.36,0.369-3.31,1H25v-2h20V33z M45,29H25v-2h20V29z M25.184,25  c0.414-1.161,1.514-2,2.816-2h14c1.302,0,2.402,0.839,2.816,2H25.184z M53,4v49h-2V3h1C52.551,3,53,3.449,53,4z M12,3h1v12h2V7h34  v10H13v36h-2V4C11,3.449,11.449,3,12,3z M47,9H29v6h18V9z M45,13H31v-2h14V13z M19,11h-2V9h2V11z M23,11h-2V9h2V11z M27,11h-2V9h2  V11z M19,15h-2v-2h2V15z M23,15h-2v-2h2V15z M27,15h-2v-2h2V15z M21,25h-4v-2h4V25z M21,29h-4v-2h4V29z M21,33h-4v-2h4V33z M21,37  h-4v-2h4V37z"/>
</svg>
