<svg xmlns="http://www.w3.org/2000/svg" style="enable-background:new 0 0 512 512" xml:space="preserve" width="512" height="512"><path style="fill:#fff" d="M14.117 504.795C6.321 504.795 0 498.475 0 490.678V259.37c0-9.52.528-19.008 1.572-28.202a253.348 253.348 0 0 1 3.306-21.406C32.248 71.389 176.563-16.386 312.773 12.805c1.688.364 3.373.742 5.056 1.132 23.142 5.419 45.437 14.161 66.275 25.987.083.047 8.437 5.016 8.437 5.016a221.542 221.542 0 0 1 11.98 7.89 250.214 250.214 0 0 1 10.866 8.094h56.073c7.796 0 14.117 6.32 14.117 14.117v71.903C502.874 181.628 512 220.422 512 259.37v231.308c0 7.797-6.321 14.117-14.117 14.117H14.117z"/><path style="fill:#a5dbff" d="M499.085 259.37v75.59l-24.17 37.245 24.17 52.428v66.044H167.923l-40.782-17.252-49.308 17.252H15.317V259.37c0-8.988.494-17.882 1.482-26.611l9.69-9.887-6.561-10.371C41.692 103.471 137.924 21.333 253.354 21.333h7.67c4.517 0 8.988.118 13.435.377h.023s6.104 9.978 10.315 10.439c3.847.422 13.872-7.851 13.872-7.851 5.788.918 11.505 2.071 17.152 3.388 22.211 5.2 43.198 13.552 62.515 24.517l8.188 4.87a203.461 203.461 0 0 1 11.058 7.294c61.387 43.057 101.503 114.348 101.503 195.003z"/><path style="fill:#fee8da" d="M176.704 333.5h182.627v22.823H176.704z"/><path style="fill:#21252a" d="M359.331 334.276v.165l-182.627 9.27V333.5h109.807z"/><path style="fill:#fee8da" d="M86.796 103.415h346.819v231.479H86.796z"/><path style="fill:#21252a" d="M411.988 312.255H112.426a.588.588 0 0 1-.588-.588V120.236c0-.324.263-.588.588-.588h299.562c.325 0 .588.264.588.588v191.431a.588.588 0 0 1-.588.588zm-298.974-1.177H411.4V120.824H113.014v190.254z"/><path style="fill:#21252a" d="M393.06 301.254H131.355a2.634 2.634 0 0 1-2.634-2.634V133.282a2.634 2.634 0 0 1 2.634-2.634H393.06a2.634 2.634 0 0 1 2.634 2.634V298.62a2.634 2.634 0 0 1-2.634 2.634z"/><path style="fill:#21252a" d="M411.988 312.255a.587.587 0 0 1-.358-.122l-20.825-16.019a.588.588 0 1 1 .716-.932l20.825 16.019a.588.588 0 0 1-.358 1.054zM389.961 134.841a.589.589 0 0 1-.316-1.084l22.027-14.017a.588.588 0 0 1 .632.992l-22.027 14.017a.577.577 0 0 1-.316.092zM133.653 134.841a.574.574 0 0 1-.323-.098l-21.228-14.017a.588.588 0 1 1 .647-.981l21.227 14.017a.588.588 0 0 1-.323 1.079zM112.426 312.255a.588.588 0 0 1-.353-1.059l22.429-16.82a.588.588 0 1 1 .707.941l-22.429 16.82a.597.597 0 0 1-.354.118zM386.157 324.883a7.81 7.81 0 1 1-15.62 0 7.81 7.81 0 0 1 15.62 0zM137.057 324.883a5.407 5.407 0 1 1-10.814 0 5.407 5.407 0 0 1 10.814 0zM159.284 324.883a5.407 5.407 0 1 1-10.815 0 5.407 5.407 0 0 1 10.815 0zM181.51 324.883a5.407 5.407 0 1 1-10.815 0 5.407 5.407 0 0 1 10.815 0zM203.737 324.883a5.407 5.407 0 1 1-10.815 0 5.407 5.407 0 0 1 10.815 0z"/><path style="fill:#fee8da" d="M107.021 350.313h307.972v84.102H107.021z"/><path style="fill:#21252a" d="M414.991 350.901h-307.97a.588.588 0 1 1 0-1.176h307.97a.587.587 0 1 1 0 1.176z"/><path style="fill:#21252a" d="M292.845 435.003a.588.588 0 0 1-.588-.588v-83.3a.588.588 0 1 1 1.176 0v83.3a.588.588 0 0 1-.588.588zM120.637 389.961h152.584v2.803H120.637z"/><path style="fill:#21252a" d="M230.957 398.158H171.71v-12.991h59.247v12.991zm-58.071-1.176h56.895v-10.638h-56.895v10.638zM270.067 406.781h-17.121a2.26 2.26 0 0 1-2.253-2.253 2.26 2.26 0 0 1 2.253-2.253h17.121a2.26 2.26 0 0 1 2.253 2.253 2.26 2.26 0 0 1-2.253 2.253zM388.26 376.595c0 5.889-4.774 10.663-10.663 10.663s-10.663-4.774-10.663-10.663 4.774-10.663 10.663-10.663 10.663 4.774 10.663 10.663zM383.604 405.28h-11.113a3.163 3.163 0 0 1-3.154-3.154 3.163 3.163 0 0 1 3.154-3.154h11.113a3.163 3.163 0 0 1 3.154 3.154 3.164 3.164 0 0 1-3.154 3.154zM383.604 416.393h-11.113a3.163 3.163 0 0 1-3.154-3.154 3.163 3.163 0 0 1 3.154-3.154h11.113a3.163 3.163 0 0 1 3.154 3.154 3.163 3.163 0 0 1-3.154 3.154z"/><path style="fill:#fee8da" d="M273.668 477.252c-17.299 0-34.596-4.312-49.77-13.034-2.185-1.255-4.326-2.596-6.467-3.937-4.684-2.931-9.528-5.964-14.71-7.946-17.257-6.603-36.546-1.363-51.423 3.938-3.073 1.094-6.141 2.246-9.214 3.399-13.652 5.122-27.766 10.418-42.543 10.69-14.279.266-28.44-4.277-39.9-12.78-5.672-4.21-9.472-8.579-11.616-13.358-3.357-7.49-2.889-17.134 1.285-26.46 3.398-7.587 8.436-13.618 14.568-17.442a29.96 29.96 0 0 1 3.701-1.961c2.055-6.364 6.878-12.164 13.419-15.501 8.266-4.211 18.949-4.802 30.096-1.658l-.637 2.264c-10.577-2.982-20.656-2.451-28.389 1.491-5.353 2.729-9.444 7.242-11.581 12.294 5.267-1.703 10.842-1.862 15.8-.343 4.733 1.452 8.963 5.027 11.046 9.332 1.56 3.227 1.762 6.524.583 9.535-1.195 3.057-3.798 5.639-7.141 7.085-4.277 1.85-9.377 1.489-13.998-.997-5.205-2.799-9.033-7.89-9.991-13.286-.423-2.386-.391-4.832.044-7.241a28.16 28.16 0 0 0-1.706.982c-5.735 3.575-10.46 9.249-13.666 16.408-3.901 8.713-4.37 17.657-1.286 24.535 1.974 4.401 5.53 8.467 10.872 12.43 11.046 8.196 24.703 12.578 38.455 12.318 14.37-.265 28.294-5.489 41.757-10.54a593.105 593.105 0 0 1 9.252-3.414c15.265-5.434 35.084-10.795 53.055-3.917 5.395 2.064 10.337 5.157 15.116 8.148 2.115 1.325 4.233 2.65 6.39 3.89 31.837 18.3 75.054 16.33 105.096-4.787l1.353 1.925c-16.931 11.904-37.392 17.937-57.85 17.938zm-204.162-77.15c-.709 2.664-.876 5.407-.404 8.065.837 4.704 4.205 9.158 8.791 11.625 3.977 2.141 8.333 2.472 11.948.91 2.771-1.198 4.916-3.306 5.886-5.782 1.178-3.015.372-5.826-.511-7.655-1.781-3.677-5.553-6.86-9.617-8.106-5.042-1.545-10.791-1.167-16.093.943z"/><path style="fill:#fee8da" d="M403.731 462.81c0 6.941-2.847 13.246-7.412 17.811-4.564 4.564-10.87 7.412-17.811 7.412h-31.857c-13.764 0-25.058-11.2-25.223-24.94v-.282c0-.306 0-.588.024-.894.235-6.588 3.012-12.541 7.388-16.94 4.564-4.564 10.87-7.411 17.811-7.411h31.857c13.859-.002 25.223 11.362 25.223 25.244z"/><path style="fill:#21252a" d="M365.262 465.021c-.165 7.764-1.412 15.529-2.941 23.011h-1.2c1.553-7.506 2.8-15.27 2.964-23.034.024-.635.024-1.27.024-1.906 0-.4 0-.8-.024-1.177-.141-9.223-1.906-17.364-5.27-24.352h1.294c3.671 7.812 5.389 17.035 5.153 27.458z"/><path style="fill:#21252a" d="M364.674 461.915v1.177h-43.245v-.282c0-.306 0-.588.024-.894h43.221z"/><path style="fill:#21252a" d="M350.94 466.103h-12.315a3.39 3.39 0 0 1-3.379-3.379 3.389 3.389 0 0 1 3.379-3.379h12.315a3.389 3.389 0 0 1 3.379 3.379 3.39 3.39 0 0 1-3.379 3.379z"/><path style="fill:#fee8da" d="M201.924 256.817a.588.588 0 0 1-.588-.588V75.041c0-.325.263-.588.588-.588h270.739c.325 0 .588.263.588.588v181.188a.588.588 0 0 1-.588.588H201.924z"/><path style="fill:#21252a" d="M472.662 75.042V256.23H201.924V75.042h270.738m0-1.177H201.924c-.65 0-1.176.527-1.176 1.176V256.23c0 .65.527 1.176 1.176 1.176h270.738c.65 0 1.176-.527 1.176-1.176V75.042c0-.65-.526-1.177-1.176-1.177z"/><path style="fill:#21252a" d="M208.999 113.188h255.253v133.234H208.999z"/><path style="fill:#eb7dff" d="M211.235 81.465H462.65v27.916H211.235z"/><path style="fill:#fee8da" d="M453.885 106.103h-19.812a.43.43 0 0 1-.43-.431V85.861a.43.43 0 0 1 .43-.431h19.812a.43.43 0 0 1 .43.431v19.811a.43.43 0 0 1-.43.431zm-19.381-.863h18.952V86.292h-18.952v18.948z"/><path style="fill:#fee8da" d="M451.793 103.571a.437.437 0 0 1-.3-.121l-15.188-14.639a.432.432 0 0 1 .6-.621l15.188 14.639a.432.432 0 0 1-.3.742z"/><path style="fill:#fee8da" d="M436.879 103.847a.432.432 0 0 1-.312-.73l14.64-15.188a.435.435 0 0 1 .611-.012c.17.165.177.438.012.609l-14.64 15.188a.426.426 0 0 1-.311.133zM294.816 134.634c0-.527-.107-.993-.316-1.396s-.493-.737-.848-1.001a3.981 3.981 0 0 0-1.234-.606 5.085 5.085 0 0 0-1.464-.209c-.451 0-.879.058-1.281.174a3.71 3.71 0 0 0-1.083.501 2.501 2.501 0 0 0-.755.803 2.145 2.145 0 0 0-.279 1.105v.139c0 .45.093.833.279 1.152.186.318.463.589.825.815.365.224.818.412 1.362.558.544.148 1.178.275 1.908.385 1.706.264 2.964.764 3.77 1.501.807.737 1.211 1.726 1.211 2.967v.28c0 .697-.121 1.338-.363 1.919a4.038 4.038 0 0 1-1.069 1.502c-.474.418-1.06.745-1.757.977-.697.233-1.504.349-2.42.349-1.039 0-1.96-.151-2.759-.453-.797-.302-1.464-.722-2.001-1.257a5.387 5.387 0 0 1-1.22-1.885 6.495 6.495 0 0 1-.418-2.363v-.697h1.955v.558c0 1.427.39 2.499 1.174 3.211.783.715 1.874 1.07 3.271 1.07 1.209 0 2.12-.267 2.734-.802.614-.536.92-1.246.92-2.129v-.141c0-.853-.316-1.504-.944-1.955-.627-.45-1.648-.775-3.059-.978a11.514 11.514 0 0 1-2.225-.5c-.658-.224-1.22-.52-1.685-.885a3.71 3.71 0 0 1-1.072-1.314c-.249-.513-.372-1.117-.372-1.815v-.279c0-.637.132-1.218.395-1.746a4.16 4.16 0 0 1 1.106-1.374 5.075 5.075 0 0 1 1.699-.896 7.158 7.158 0 0 1 2.176-.314c.913 0 1.732.133 2.455.396.721.264 1.33.616 1.827 1.059.495.442.872.962 1.127 1.558a4.71 4.71 0 0 1 .386 1.874v.978h-1.955v-.836zM308.499 144.129h-.279c-.372.745-.86 1.334-1.467 1.769-.604.433-1.372.651-2.304.651-.637 0-1.22-.104-1.757-.314a3.572 3.572 0 0 1-1.371-.943c-.381-.418-.676-.938-.886-1.56-.209-.62-.314-1.341-.314-2.164v-6.889h1.815v6.656c0 1.21.249 2.094.744 2.653.497.558 1.258.838 2.281.838 1.102 0 1.966-.377 2.596-1.13.627-.752.941-1.756.941-3.014v-6.004h1.815v14.383c0 .527-.167.961-.5 1.303-.335.342-.765.512-1.293.512h-6.585V149.2h5.935c.418 0 .628-.232.628-.698v-4.373zM316.76 137.659c0 .559.237.986.711 1.281.472.294 1.337.488 2.594.581 1.35.109 2.378.431 3.082.966.707.536 1.06 1.316 1.06 2.34v.139c0 .558-.112 1.059-.337 1.501a3.325 3.325 0 0 1-.932 1.128c-.395.312-.876.547-1.441.71a6.671 6.671 0 0 1-1.85.244c-.9 0-1.674-.12-2.315-.36-.646-.24-1.181-.559-1.606-.954a3.978 3.978 0 0 1-.967-1.349 4.531 4.531 0 0 1-.372-1.525l1.722-.418c.077.884.418 1.593 1.023 2.129.607.535 1.413.803 2.422.803.853 0 1.539-.167 2.059-.501.518-.333.779-.803.779-1.407 0-.652-.256-1.117-.767-1.397-.514-.279-1.343-.457-2.492-.535-1.334-.093-2.357-.403-3.071-.931s-1.072-1.296-1.072-2.305v-.139c0-.543.116-1.019.351-1.431.232-.412.546-.757.941-1.036a4.332 4.332 0 0 1 1.339-.629 5.743 5.743 0 0 1 1.557-.209c.76 0 1.427.104 2.001.314.574.21 1.055.481 1.444.815.388.333.688.718.897 1.152.209.435.344.869.407 1.304l-1.722.418c-.077-.745-.377-1.326-.895-1.746-.521-.418-1.199-.628-2.036-.628-.328 0-.642.035-.944.105-.302.07-.569.174-.802.314a1.72 1.72 0 0 0-.56.524 1.298 1.298 0 0 0-.208.732zM328.213 134.68h3.631v-4.747h1.815v4.747h4.468v1.676h-4.468v7.494c0 .465.209.697.628.697h3.282v1.676h-3.933c-.528 0-.96-.171-1.292-.513-.335-.34-.5-.775-.5-1.303v-8.052h-3.631v-1.675zM344.177 141.011c.047 1.148.402 2.071 1.069 2.77.667.697 1.599 1.047 2.794 1.047.541 0 1.016-.063 1.418-.187a3.316 3.316 0 0 0 1.037-.511c.286-.217.518-.47.697-.757.179-.287.323-.593.43-.919l1.722.466a5.085 5.085 0 0 1-1.804 2.617c-.876.675-2.059 1.012-3.547 1.012a5.86 5.86 0 0 1-2.271-.43 5.08 5.08 0 0 1-1.778-1.221 5.685 5.685 0 0 1-1.165-1.885c-.279-.73-.418-1.536-.418-2.421v-.558c0-.807.142-1.56.43-2.258a5.346 5.346 0 0 1 1.199-1.803 5.607 5.607 0 0 1 1.804-1.188 5.802 5.802 0 0 1 2.246-.43c.946 0 1.764.174 2.455.524.691.349 1.258.779 1.699 1.291.442.512.767 1.071.976 1.676.209.605.314 1.163.314 1.675v1.49h-9.307zm3.864-4.934c-.514 0-.99.081-1.432.244-.442.163-.83.392-1.164.687a3.639 3.639 0 0 0-.814 1.036 3.795 3.795 0 0 0-.407 1.291h7.445a3.306 3.306 0 0 0-1.174-2.373 3.783 3.783 0 0 0-1.141-.652 3.81 3.81 0 0 0-1.313-.233zM368.194 146.224h-1.815v-8.285c0-.543-.125-.989-.372-1.339-.249-.349-.646-.523-1.188-.523-.511 0-.927.189-1.246.569-.318.381-.477.966-.477 1.757v7.82h-1.815v-8.378c0-.512-.139-.935-.418-1.269-.279-.333-.651-.5-1.118-.5-.558 0-.988.201-1.29.604-.302.404-.456.931-.456 1.583v7.959h-1.813V134.68h1.813v1.258h.281c.2-.544.495-.943.883-1.199.388-.256.846-.383 1.374-.383.558 0 1.02.148 1.383.442.365.295.618.675.758 1.141h.279c.528-1.055 1.364-1.583 2.513-1.583.869 0 1.541.275 2.013.826.474.551.711 1.268.711 2.153v8.889zM379.015 127.466l1.63.512-6.774 20.711-1.653-.511 6.797-20.712zM393.257 127.466l1.629.512-6.774 20.711-1.653-.511 6.798-20.712zM275.623 139.447h-2.352a.588.588 0 1 1 0-1.176h2.352a.588.588 0 1 1 0 1.176zM268.712 139.447h-4.561a.588.588 0 1 1 0-1.176h4.561a.587.587 0 1 1 0 1.176zm-9.119 0h-4.561a.587.587 0 1 1 0-1.176h4.561a.588.588 0 1 1 0 1.176zm-9.121 0h-4.561a.588.588 0 1 1 0-1.176h4.561a.588.588 0 1 1 0 1.176zm-9.119 0h-4.561a.588.588 0 1 1 0-1.176h4.561a.588.588 0 1 1 0 1.176zm-9.122 0h-4.559a.588.588 0 1 1 0-1.176h4.559a.588.588 0 1 1 0 1.176zM220.758 141.799a.587.587 0 0 1-.588-.588v-2.352c0-.325.263-.588.588-.588h2.352a.587.587 0 1 1 0 1.176h-1.764v1.764a.588.588 0 0 1-.588.588zM220.758 230.296a.587.587 0 0 1-.588-.588v-4.916a.588.588 0 1 1 1.176 0v4.916a.588.588 0 0 1-.588.588zm0-9.833a.587.587 0 0 1-.588-.588v-4.917a.588.588 0 0 1 1.176 0v4.917a.588.588 0 0 1-.588.588zm0-9.834a.587.587 0 0 1-.588-.588v-4.916a.588.588 0 0 1 1.176 0v4.916a.588.588 0 0 1-.588.588zm0-9.833a.587.587 0 0 1-.588-.588v-4.917a.588.588 0 0 1 1.176 0v4.917a.587.587 0 0 1-.588.588zm0-9.832a.587.587 0 0 1-.588-.588v-4.916a.588.588 0 1 1 1.176 0v4.916a.588.588 0 0 1-.588.588zm0-9.833a.588.588 0 0 1-.588-.588v-4.916a.588.588 0 1 1 1.176 0v4.916a.588.588 0 0 1-.588.588zm0-9.833a.588.588 0 0 1-.588-.588v-4.917a.588.588 0 1 1 1.176 0v4.917a.588.588 0 0 1-.588.588zm0-9.834a.587.587 0 0 1-.588-.588v-4.916a.588.588 0 1 1 1.176 0v4.916a.587.587 0 0 1-.588.588zm0-9.832a.587.587 0 0 1-.588-.588v-4.916a.587.587 0 1 1 1.176 0v4.916a.588.588 0 0 1-.588.588zM223.11 237.564h-2.352a.587.587 0 0 1-.588-.588v-2.352a.587.587 0 1 1 1.176 0v1.764h1.764a.587.587 0 1 1 0 1.176zM443.49 237.564h-4.791a.588.588 0 1 1 0-1.176h4.791a.588.588 0 1 1 0 1.176zm-9.582 0h-4.791a.588.588 0 1 1 0-1.176h4.791a.588.588 0 1 1 0 1.176zm-9.581 0h-4.791a.588.588 0 1 1 0-1.176h4.791a.588.588 0 1 1 0 1.176zm-9.582 0h-4.791a.588.588 0 1 1 0-1.176h4.791a.588.588 0 1 1 0 1.176zm-9.582 0h-4.791a.588.588 0 1 1 0-1.176h4.791a.587.587 0 1 1 0 1.176zm-9.581 0h-4.791a.588.588 0 1 1 0-1.176h4.791a.587.587 0 1 1 0 1.176zm-9.582 0h-4.791a.587.587 0 1 1 0-1.176H386a.588.588 0 1 1 0 1.176zm-9.581 0h-4.791a.587.587 0 1 1 0-1.176h4.791a.588.588 0 1 1 0 1.176zm-9.582 0h-4.791a.588.588 0 1 1 0-1.176h4.791a.588.588 0 1 1 0 1.176zm-9.582 0h-4.791a.588.588 0 1 1 0-1.176h4.791a.588.588 0 1 1 0 1.176zm-9.581 0h-4.791a.588.588 0 1 1 0-1.176h4.791a.588.588 0 1 1 0 1.176zm-9.582 0h-4.791a.588.588 0 1 1 0-1.176h4.791a.588.588 0 1 1 0 1.176zm-9.582 0h-4.791a.588.588 0 1 1 0-1.176h4.791a.588.588 0 1 1 0 1.176zm-9.584 0h-4.791a.588.588 0 1 1 0-1.176h4.791a.587.587 0 1 1 0 1.176zm-9.581 0h-4.791a.587.587 0 1 1 0-1.176h4.791a.587.587 0 1 1 0 1.176zm-9.582 0h-4.791a.587.587 0 1 1 0-1.176h4.791a.588.588 0 1 1 0 1.176zm-9.582 0h-4.791a.588.588 0 1 1 0-1.176h4.791a.588.588 0 1 1 0 1.176zm-9.581 0h-4.791a.588.588 0 1 1 0-1.176h4.791a.588.588 0 1 1 0 1.176zm-9.582 0h-4.791a.588.588 0 1 1 0-1.176h4.791a.588.588 0 1 1 0 1.176zm-9.582 0h-4.791a.588.588 0 1 1 0-1.176h4.791a.588.588 0 1 1 0 1.176zm-9.581 0h-4.791a.588.588 0 1 1 0-1.176h4.791a.588.588 0 1 1 0 1.176zm-9.582 0h-4.791a.588.588 0 1 1 0-1.176h4.791a.588.588 0 1 1 0 1.176zm-9.582 0H227.9a.588.588 0 1 1 0-1.176h4.791a.588.588 0 1 1 0 1.176zM450.636 237.564h-2.352a.587.587 0 1 1 0-1.176h1.764v-1.764a.587.587 0 1 1 1.176 0v2.352a.587.587 0 0 1-.588.588zM450.636 230.296a.588.588 0 0 1-.588-.588v-4.916a.588.588 0 1 1 1.176 0v4.916a.588.588 0 0 1-.588.588zm0-9.833a.588.588 0 0 1-.588-.588v-4.917a.588.588 0 1 1 1.176 0v4.917a.588.588 0 0 1-.588.588zm0-9.833a.588.588 0 0 1-.588-.588v-4.917a.588.588 0 0 1 1.176 0v4.917a.587.587 0 0 1-.588.588zm0-9.834a.588.588 0 0 1-.588-.588v-4.917a.588.588 0 0 1 1.176 0v4.917a.587.587 0 0 1-.588.588zm0-9.832a.588.588 0 0 1-.588-.588v-4.916a.588.588 0 1 1 1.176 0v4.916a.588.588 0 0 1-.588.588zm0-9.833a.588.588 0 0 1-.588-.588v-4.916a.588.588 0 1 1 1.176 0v4.916a.588.588 0 0 1-.588.588zm0-9.833a.588.588 0 0 1-.588-.588v-4.916a.587.587 0 1 1 1.176 0v4.916a.588.588 0 0 1-.588.588zm0-9.832a.588.588 0 0 1-.588-.588v-4.917a.588.588 0 1 1 1.176 0v4.917a.588.588 0 0 1-.588.588zm0-9.834a.588.588 0 0 1-.588-.588v-4.916a.587.587 0 1 1 1.176 0v4.916a.588.588 0 0 1-.588.588zM450.636 141.799a.588.588 0 0 1-.588-.588v-1.764h-1.764a.587.587 0 1 1 0-1.176h2.352c.326 0 .588.263.588.588v2.352a.588.588 0 0 1-.588.588zM443.153 139.447h-5.128a.588.588 0 1 1 0-1.176h5.128a.588.588 0 1 1 0 1.176zm-10.256 0h-5.13a.588.588 0 1 1 0-1.176h5.13a.588.588 0 1 1 0 1.176zm-10.258 0h-5.128a.588.588 0 1 1 0-1.176h5.128a.588.588 0 1 1 0 1.176zm-10.256 0h-5.13a.587.587 0 1 1 0-1.176h5.13a.587.587 0 1 1 0 1.176zM402.128 139.447h-2.355a.588.588 0 1 1 0-1.176h2.355a.587.587 0 1 1 0 1.176zM317.571 180.808l-2.485 2.485-1.411.79.142.338 1.269-.395h3.812v2.033h-3.812l-1.269-.395-.142.339 1.411.79 2.485 2.485-1.439 1.439-2.485-2.484-.79-1.412-.339.142.395 1.27v3.811h-2.034v-3.811l.398-1.27-.339-.142-.79 1.412-2.485 2.484-1.441-1.439 2.485-2.485 1.413-.79-.142-.339-1.272.395h-3.812v-2.033h3.812l1.272.395.142-.338-1.413-.79-2.485-2.485 1.441-1.44 2.485 2.485.79 1.411.339-.141-.398-1.27v-3.812h2.034v3.812l-.395 1.27.339.141.79-1.411 2.485-2.485 1.439 1.44zM340.498 180.808l-2.485 2.485-1.411.79.142.338 1.269-.395h3.812v2.033h-3.812l-1.269-.395-.142.339 1.411.79 2.485 2.485-1.439 1.439-2.485-2.484-.79-1.412-.339.142.395 1.27v3.811h-2.034v-3.811l.398-1.27-.339-.142-.79 1.412-2.485 2.484-1.441-1.439 2.485-2.485 1.413-.79-.142-.339-1.272.395h-3.812v-2.033h3.812l1.272.395.142-.338-1.413-.79-2.485-2.485 1.441-1.44 2.485 2.485.79 1.411.339-.141-.398-1.27v-3.812h2.034v3.812l-.395 1.27.339.141.79-1.411 2.485-2.485 1.439 1.44zM363.422 180.808l-2.485 2.485-1.411.79.142.338 1.269-.395h3.812v2.033h-3.812l-1.269-.395-.142.339 1.411.79 2.485 2.485-1.439 1.439-2.485-2.484-.79-1.412-.339.142.395 1.27v3.811h-2.034v-3.811l.397-1.27-.339-.142-.79 1.412-2.485 2.484-1.441-1.439 2.485-2.485 1.413-.79-.142-.339-1.272.395h-3.812v-2.033h3.812l1.272.395.142-.338-1.413-.79-2.485-2.485 1.441-1.44 2.485 2.485.79 1.411.339-.141-.397-1.27v-3.812h2.034v3.812l-.395 1.27.339.141.79-1.411 2.485-2.485 1.439 1.44z"/><path style="fill:#eb7dff" d="M167.923 490.678h-90.09c.047-1.741.165-3.482.4-5.247 1.223-8.941 4.941-16.87 10.447-23.222l.024-.024c.259-.329.517-.612.8-.918.259-.283.541-.588.824-.871a39.955 39.955 0 0 1 4.941-4.423c.282-.259.612-.494.918-.706.306-.235.612-.471.965-.706 1.788-1.271 3.67-2.353 5.623-3.341.353-.188.706-.353 1.059-.518a9.026 9.026 0 0 1 1.082-.494h.023a44.508 44.508 0 0 1 24.046-3.317c22.303 3.059 38.538 21.929 38.938 43.787z"/><path transform="rotate(-32.814 108.148 457.394)" style="fill:#21252a" d="M106.966 424.145h2.353v66.462h-2.353z"/><path style="fill:#21252a" d="m120.042 490.066-.941.612h-1.459l-22.375-34.705-13.223-20.493 1.976-1.27 13.129 20.352zM109.854 490.678h-2.799l-18.353-28.493-13.764-21.317 1.977-1.27 13.411 20.798z"/><path style="fill:#ffa7bb" d="M499.085 334.59v90.043a47.22 47.22 0 0 1-8.517-.471c-8.894-1.365-16.776-5.223-23.034-10.823-.306-.282-.635-.565-.918-.847-.282-.259-.565-.517-.847-.823l-.024-.024a36.347 36.347 0 0 1-4.329-4.988c-.259-.306-.471-.635-.706-.941-.235-.306-.447-.635-.682-.965a43.964 43.964 0 0 1-3.247-5.694c-.165-.353-.329-.706-.518-1.059-.165-.376-.306-.729-.471-1.106a44.983 44.983 0 0 1-2.918-24.117c3.554-22.821 23.624-39.032 46.211-38.185z"/><path transform="rotate(-31.864 463.015 393.796)" style="fill:#21252a" d="M429.795 392.618h66.462v2.353h-66.462z"/><path transform="rotate(-31.864 468.294 400.99)" style="fill:#21252a" d="M435.072 399.811h66.461v2.353h-66.461z"/><path style="fill:#21252a" d="M499.085 390.941v2.776l-31.552 19.623-21.552 13.387-1.247-1.999 21.035-13.059z"/><path style="fill:#ffe400" d="m56.163 198.125-2.4 66.491L16.8 232.759a238.677 238.677 0 0 1 3.129-20.258l36.234-14.376z"/><path style="fill:#eb7dff" d="M274.483 21.71h-.024L240.39 46.508l64.185 17.529-5.905-39.739z"/><path style="fill:#fee8da" d="M160.285 91.811a.911.911 0 0 1-.911-.911V57.86a.911.911 0 0 1 1.822 0V90.9a.911.911 0 0 1-.911.911z"/><path style="fill:#fee8da" d="M148.604 86.973a.91.91 0 0 1-.645-1.556l23.363-23.363a.911.911 0 1 1 1.289 1.289l-23.363 23.363a.904.904 0 0 1-.644.267z"/><path style="fill:#fee8da" d="M176.805 75.292h-33.04a.911.911 0 0 1 0-1.822h33.04a.911.911 0 0 1 0 1.822z"/><path style="fill:#fee8da" d="M171.967 86.973a.91.91 0 0 1-.645-.267l-23.363-23.363a.911.911 0 1 1 1.289-1.289l23.363 23.363a.911.911 0 0 1-.644 1.556zM471.06 308.072a.911.911 0 0 1-.911-.911v-33.04a.911.911 0 0 1 1.822 0v33.04a.91.91 0 0 1-.911.911z"/><path style="fill:#fee8da" d="M459.379 303.234a.911.911 0 0 1-.644-1.556l23.363-23.363a.911.911 0 1 1 1.289 1.289l-23.363 23.363a.908.908 0 0 1-.645.267z"/><path style="fill:#fee8da" d="M487.58 291.553h-33.04a.911.911 0 0 1 0-1.822h33.04a.911.911 0 0 1 0 1.822z"/><path style="fill:#fee8da" d="M482.742 303.234a.91.91 0 0 1-.645-.267l-23.363-23.363a.911.911 0 1 1 1.289-1.289l23.363 23.363a.911.911 0 0 1-.644 1.556zM452.638 473.872a.911.911 0 0 1-.911-.911v-33.04a.911.911 0 0 1 1.822 0v33.04a.911.911 0 0 1-.911.911z"/><path style="fill:#fee8da" d="M440.957 469.034a.91.91 0 0 1-.645-1.555l23.363-23.363a.911.911 0 1 1 1.289 1.289l-23.363 23.363a.907.907 0 0 1-.644.266z"/><path style="fill:#fee8da" d="M469.157 457.353h-33.04a.911.911 0 0 1 0-1.822h33.04a.911.911 0 0 1 0 1.822z"/><path style="fill:#fee8da" d="M464.32 469.034a.91.91 0 0 1-.645-.266l-23.363-23.363a.911.911 0 1 1 1.289-1.289l23.363 23.363a.911.911 0 0 1-.644 1.555zM48.951 353.727a.911.911 0 0 1-.911-.911v-33.04a.911.911 0 0 1 1.822 0v33.04a.911.911 0 0 1-.911.911z"/><path style="fill:#fee8da" d="M37.269 348.89a.911.911 0 0 1-.644-1.556l23.363-23.363a.911.911 0 1 1 1.289 1.289l-23.363 23.363a.908.908 0 0 1-.645.267z"/><path style="fill:#fee8da" d="M65.47 337.208H32.43a.911.911 0 0 1 0-1.822h33.04a.911.911 0 0 1 0 1.822z"/><path style="fill:#fee8da" d="M60.632 348.89a.91.91 0 0 1-.645-.267L36.625 325.26a.911.911 0 1 1 1.289-1.289l23.363 23.363a.911.911 0 0 1-.645 1.556z"/></svg>