<svg id="Gradient_Pantone2020" enable-background="new 0 0 430 430" height="512" viewBox="0 0 430 430" width="512" xmlns="http://www.w3.org/2000/svg"><g><path d="m252 270.6-37-16.7-185 83.6 37 16.8 37-16.8 37 16.8 37-16.8-37-16.7z" fill="#597ba1"/><path d="m289 320.8-37-16.7-74 33.4 37 16.8z" fill="#597ba1"/><path d="m252 371-37-16.7-37 16.7 37 16.7-37 16.7 37 16.8 185-83.7-37-16.7z" fill="#597ba1"/><g fill="#0f4c81"><path d="m141 354.3 37-16.8-37-16.7z"/><path d="m215 421.2 37-16.8v-33.4l-37-16.7z"/><path d="m252 337.5 37-16.7-37-16.7z"/><path d="m363 320.8v33.5l37-16.8z"/><path d="m215 253.9v33.4l37-16.7z"/></g><path d="m363 76.8-74 33.5v-33.5l-37-16.7v-33.5l-37-16.7-185 83.7v41.8l37 16.7 37-16.7 37 16.7 37-16.7v66.9l37 16.7 185-83.6v-41.8z" fill="#c6d1e0"/><path d="m178 93.6v33.4l37-16.7z" fill="#0f4c81"/><path d="m178 127v33.5l37-16.8z" fill="#0f4c81"/><path d="m104 93.6v41.8l37 16.7v-41.8z" fill="#0f4c81"/><path d="m178 160.5v41.7l37 16.8v-41.8z" fill="#0f4c81"/><path d="m30 93.6v41.8l37 16.7v-41.8z" fill="#0f4c81"/><g fill="#597ba1"><path d="m141 76.8 37 16.8 74-33.5v-33.4z"/><path d="m289 76.8-74 33.5 37 16.7 37-16.7z"/><path d="m141 110.3v41.8l37-16.7v-41.8z"/><path d="m67 110.3v41.8l37-16.7v-41.8z"/><path d="m215 177.2v41.8l185-83.6v-41.8z"/></g></g></svg>