<svg id="Capa_1" enable-background="new 0 0 512 512" height="512" viewBox="0 0 512 512" width="512" xmlns="http://www.w3.org/2000/svg"><path d="m481.579 490.847h-127.424v-329.603c0-5.868 4.757-10.625 10.625-10.625h106.174c5.868 0 10.625 4.757 10.625 10.625z" fill="#596c76"/><path d="m470.954 150.619h-30c5.868 0 10.625 4.757 10.625 10.625v329.603h30v-329.603c0-5.868-4.757-10.625-10.625-10.625z" fill="#465a61"/><path d="m469.579 221.571h-64.896c-4.142 0-7.5-3.358-7.5-7.5s3.358-7.5 7.5-7.5h64.896c4.142 0 7.5 3.358 7.5 7.5s-3.358 7.5-7.5 7.5z" fill="#465a61"/><path d="m469.579 261.643h-64.896c-4.142 0-7.5-3.358-7.5-7.5s3.358-7.5 7.5-7.5h64.896c4.142 0 7.5 3.358 7.5 7.5s-3.358 7.5-7.5 7.5z" fill="#465a61"/><path d="m469.579 301.714h-64.896c-4.142 0-7.5-3.358-7.5-7.5s3.358-7.5 7.5-7.5h64.896c4.142 0 7.5 3.358 7.5 7.5s-3.358 7.5-7.5 7.5z" fill="#465a61"/><path d="m469.579 341.786h-64.896c-4.142 0-7.5-3.358-7.5-7.5s3.358-7.5 7.5-7.5h64.896c4.142 0 7.5 3.358 7.5 7.5s-3.358 7.5-7.5 7.5z" fill="#465a61"/><path d="m469.579 381.858h-64.896c-4.142 0-7.5-3.358-7.5-7.5s3.358-7.5 7.5-7.5h64.896c4.142 0 7.5 3.358 7.5 7.5s-3.358 7.5-7.5 7.5z" fill="#465a61"/><path d="m469.579 421.93h-64.896c-4.142 0-7.5-3.358-7.5-7.5s3.358-7.5 7.5-7.5h64.896c4.142 0 7.5 3.358 7.5 7.5s-3.358 7.5-7.5 7.5z" fill="#465a61"/><path d="m469.579 462.001h-64.896c-4.142 0-7.5-3.358-7.5-7.5s3.358-7.5 7.5-7.5h64.896c4.142 0 7.5 3.358 7.5 7.5s-3.358 7.5-7.5 7.5z" fill="#465a61"/><path d="m417.867 63.024c-4.142 0-7.5-3.358-7.5-7.5v-34.37c0-4.142 3.358-7.5 7.5-7.5s7.5 3.358 7.5 7.5v34.37c0 4.142-3.358 7.5-7.5 7.5z" fill="#596c76"/><path d="m459.712 150.619h-83.691v-21.152c0-5.825 4.722-10.547 10.547-10.547h62.597c5.825 0 10.547 4.722 10.547 10.547z" fill="#8d9ca8"/><path d="m443.935 118.921h-52.137v-26.762c0-2.727 2.21-4.937 4.937-4.937h42.264c2.727 0 4.937 2.21 4.937 4.937v26.762z" fill="#596c76"/><path d="m431.683 87.222h-27.633v-21.422c0-5.676 4.601-10.277 10.277-10.277h7.08c5.676 0 10.277 4.601 10.277 10.277v21.422z" fill="#8d9ca8"/><path d="m410.55 490.847h-95.747l-10-151.833 10-145.349h83.006c7.037 0 12.741 5.704 12.741 12.741z" fill="#8d9ca8"/><path d="m397.809 193.664h-30c7.037 0 12.741 5.704 12.741 12.741v284.441h30v-284.441c0-7.036-5.705-12.741-12.741-12.741z" fill="#7a8c98"/><path d="m380.691 244.347h-41.624c-4.142 0-7.5-3.358-7.5-7.5s3.358-7.5 7.5-7.5h41.624c4.142 0 7.5 3.358 7.5 7.5s-3.358 7.5-7.5 7.5z" fill="#596c76"/><path d="m380.691 280.541h-41.624c-4.142 0-7.5-3.358-7.5-7.5s3.358-7.5 7.5-7.5h41.624c4.142 0 7.5 3.358 7.5 7.5s-3.358 7.5-7.5 7.5z" fill="#596c76"/><path d="m380.691 316.734h-41.624c-4.142 0-7.5-3.358-7.5-7.5s3.358-7.5 7.5-7.5h41.624c4.142 0 7.5 3.358 7.5 7.5s-3.358 7.5-7.5 7.5z" fill="#596c76"/><path d="m380.691 352.928h-41.624c-4.142 0-7.5-3.358-7.5-7.5s3.358-7.5 7.5-7.5h41.624c4.142 0 7.5 3.358 7.5 7.5s-3.358 7.5-7.5 7.5z" fill="#596c76"/><path d="m380.691 389.122h-41.624c-4.142 0-7.5-3.358-7.5-7.5s3.358-7.5 7.5-7.5h41.624c4.142 0 7.5 3.358 7.5 7.5s-3.358 7.5-7.5 7.5z" fill="#596c76"/><path d="m380.691 425.316h-41.624c-4.142 0-7.5-3.358-7.5-7.5s3.358-7.5 7.5-7.5h41.624c4.142 0 7.5 3.358 7.5 7.5s-3.358 7.5-7.5 7.5z" fill="#596c76"/><path d="m380.691 461.51h-41.624c-4.142 0-7.5-3.358-7.5-7.5s3.358-7.5 7.5-7.5h41.624c4.142 0 7.5 3.358 7.5 7.5s-3.358 7.5-7.5 7.5z" fill="#596c76"/><path d="m314.803 490.847h-127.424v-434.613c0-14.799 11.997-26.795 26.795-26.795h73.833c14.799 0 26.795 11.997 26.795 26.795v434.613z" fill="#b6c4cf"/><path d="m288.007 29.438h-30c14.799 0 26.795 11.997 26.795 26.795v434.613h30v-434.612c.001-14.799-11.996-26.796-26.795-26.796z" fill="#9facba"/><path d="m216.542 83.337c-4.142 0-7.5-3.358-7.5-7.5v-13.495c0-4.142 3.358-7.5 7.5-7.5s7.5 3.358 7.5 7.5v13.495c0 4.142-3.358 7.5-7.5 7.5z" fill="#8d9ca8"/><path d="m251.091 83.337c-4.142 0-7.5-3.358-7.5-7.5v-13.495c0-4.142 3.358-7.5 7.5-7.5s7.5 3.358 7.5 7.5v13.495c0 4.142-3.358 7.5-7.5 7.5z" fill="#8d9ca8"/><path d="m285.641 83.337c-4.142 0-7.5-3.358-7.5-7.5v-13.495c0-4.142 3.358-7.5 7.5-7.5s7.5 3.358 7.5 7.5v13.495c0 4.142-3.358 7.5-7.5 7.5z" fill="#8d9ca8"/><path d="m216.542 124.168c-4.142 0-7.5-3.358-7.5-7.5v-13.495c0-4.142 3.358-7.5 7.5-7.5s7.5 3.358 7.5 7.5v13.495c0 4.142-3.358 7.5-7.5 7.5z" fill="#8d9ca8"/><path d="m251.091 124.168c-4.142 0-7.5-3.358-7.5-7.5v-13.495c0-4.142 3.358-7.5 7.5-7.5s7.5 3.358 7.5 7.5v13.495c0 4.142-3.358 7.5-7.5 7.5z" fill="#8d9ca8"/><path d="m285.641 124.168c-4.142 0-7.5-3.358-7.5-7.5v-13.495c0-4.142 3.358-7.5 7.5-7.5s7.5 3.358 7.5 7.5v13.495c0 4.142-3.358 7.5-7.5 7.5z" fill="#8d9ca8"/><path d="m216.542 164.914c-4.142 0-7.5-3.358-7.5-7.5v-13.496c0-4.142 3.358-7.5 7.5-7.5s7.5 3.358 7.5 7.5v13.496c0 4.142-3.358 7.5-7.5 7.5z" fill="#8d9ca8"/><path d="m251.091 164.914c-4.142 0-7.5-3.358-7.5-7.5v-13.496c0-4.142 3.358-7.5 7.5-7.5s7.5 3.358 7.5 7.5v13.496c0 4.142-3.358 7.5-7.5 7.5z" fill="#8d9ca8"/><path d="m285.641 164.914c-4.142 0-7.5-3.358-7.5-7.5v-13.496c0-4.142 3.358-7.5 7.5-7.5s7.5 3.358 7.5 7.5v13.496c0 4.142-3.358 7.5-7.5 7.5z" fill="#8d9ca8"/><path d="m216.542 201.66c-4.142 0-7.5-3.358-7.5-7.5v-9.495c0-4.142 3.358-7.5 7.5-7.5s7.5 3.358 7.5 7.5v9.495c0 4.142-3.358 7.5-7.5 7.5z" fill="#8d9ca8"/><path d="m285.641 205.66c-4.142 0-7.5-3.358-7.5-7.5v-13.495c0-4.142 3.358-7.5 7.5-7.5s7.5 3.358 7.5 7.5v13.495c0 4.142-3.358 7.5-7.5 7.5z" fill="#8d9ca8"/><path d="m158.128 225.762-20 136.348 20 128.737h96.989v-288.327c0-10.21-10.599-16.968-19.856-12.659z" fill="#7a8c98"/><path d="m235.261 189.861-12.044 5.606c1.197 2.038 1.9 4.431 1.9 7.053v288.327h30v-288.327c0-10.21-10.6-16.968-19.856-12.659z" fill="#5e727d"/><path d="m106.385 50.374c-4.142 0-7.5 3.358-7.5 7.5v13.15h-13.982v-32.5c0-4.142-3.358-7.5-7.5-7.5s-7.5 3.358-7.5 7.5v12.5h-13.981v-13.15c0-4.142-3.358-7.5-7.5-7.5s-7.5 3.358-7.5 7.5v20.65c0 4.142 3.358 7.5 7.5 7.5h21.481v47.378c0 4.142 3.358 7.5 7.5 7.5s7.5-3.358 7.5-7.5v-27.378h21.481c4.142 0 7.5-3.358 7.5-7.5v-20.65c.001-4.143-3.357-7.5-7.499-7.5z" fill="#b6c4cf"/><path d="m112.514 99.128-43.467 13.957c-4.537 1.457-7.613 5.676-7.613 10.441v27.093h65.399v-41.05c0-7.434-7.24-12.714-14.319-10.441z" fill="#8d9ca8"/><path d="m157.846 490.847h-127.424v-328.962c0-6.222 5.044-11.266 11.266-11.266h104.892c6.222 0 11.266 5.044 11.266 11.266z" fill="#d9e7ec"/><path d="m146.579 150.619h-30c6.222 0 11.266 5.044 11.266 11.266v328.962h30v-328.962c.001-6.222-5.043-11.266-11.266-11.266z" fill="#c5d3dd"/><path d="m504.5 498.347h-497c-4.142 0-7.5-3.358-7.5-7.5s3.358-7.5 7.5-7.5h497c4.142 0 7.5 3.358 7.5 7.5s-3.358 7.5-7.5 7.5z" fill="#b6c4cf"/><path d="m285.641 246.406c-4.142 0-7.5-3.358-7.5-7.5v-13.496c0-4.142 3.358-7.5 7.5-7.5s7.5 3.358 7.5 7.5v13.496c0 4.142-3.358 7.5-7.5 7.5z" fill="#8d9ca8"/><path d="m285.641 287.151c-4.142 0-7.5-3.358-7.5-7.5v-13.496c0-4.142 3.358-7.5 7.5-7.5s7.5 3.358 7.5 7.5v13.496c0 4.142-3.358 7.5-7.5 7.5z" fill="#8d9ca8"/><path d="m285.641 327.897c-4.142 0-7.5-3.358-7.5-7.5v-13.496c0-4.142 3.358-7.5 7.5-7.5s7.5 3.358 7.5 7.5v13.496c0 4.142-3.358 7.5-7.5 7.5z" fill="#8d9ca8"/><path d="m285.641 368.643c-4.142 0-7.5-3.358-7.5-7.5v-13.496c0-4.142 3.358-7.5 7.5-7.5s7.5 3.358 7.5 7.5v13.496c0 4.142-3.358 7.5-7.5 7.5z" fill="#8d9ca8"/><path d="m285.641 409.388c-4.142 0-7.5-3.358-7.5-7.5v-13.495c0-4.142 3.358-7.5 7.5-7.5s7.5 3.358 7.5 7.5v13.495c0 4.143-3.358 7.5-7.5 7.5z" fill="#8d9ca8"/><path d="m285.641 450.134c-4.142 0-7.5-3.358-7.5-7.5v-13.496c0-4.142 3.358-7.5 7.5-7.5s7.5 3.358 7.5 7.5v13.496c0 4.142-3.358 7.5-7.5 7.5z" fill="#8d9ca8"/><path d="m63.434 457.967c-4.142 0-7.5-3.358-7.5-7.5v-265.803c0-4.142 3.358-7.5 7.5-7.5s7.5 3.358 7.5 7.5v265.803c0 4.142-3.358 7.5-7.5 7.5z" fill="#b6c4cf"/><path d="m94.134 457.967c-4.142 0-7.5-3.358-7.5-7.5v-265.803c0-4.142 3.358-7.5 7.5-7.5s7.5 3.358 7.5 7.5v265.803c0 4.142-3.358 7.5-7.5 7.5z" fill="#b6c4cf"/><path d="m124.833 457.967c-4.142 0-7.5-3.358-7.5-7.5v-265.803c0-4.142 3.358-7.5 7.5-7.5s7.5 3.358 7.5 7.5v265.803c0 4.142-3.357 7.5-7.5 7.5z" fill="#b6c4cf"/><g fill="#596c76"><path d="m191.385 261.643c-4.142 0-7.5-3.358-7.5-7.5v-2.131c0-4.142 3.358-7.5 7.5-7.5s7.5 3.358 7.5 7.5v2.131c0 4.142-3.358 7.5-7.5 7.5z"/><path d="m221.385 261.643c-4.142 0-7.5-3.358-7.5-7.5v-2.131c0-4.142 3.358-7.5 7.5-7.5s7.5 3.358 7.5 7.5v2.131c0 4.142-3.358 7.5-7.5 7.5z"/><path d="m191.385 291.408c-4.142 0-7.5-3.358-7.5-7.5v-2.131c0-4.142 3.358-7.5 7.5-7.5s7.5 3.358 7.5 7.5v2.131c0 4.142-3.358 7.5-7.5 7.5z"/><path d="m221.385 291.408c-4.142 0-7.5-3.358-7.5-7.5v-2.131c0-4.142 3.358-7.5 7.5-7.5s7.5 3.358 7.5 7.5v2.131c0 4.142-3.358 7.5-7.5 7.5z"/><path d="m191.385 321.173c-4.142 0-7.5-3.358-7.5-7.5v-2.131c0-4.142 3.358-7.5 7.5-7.5s7.5 3.358 7.5 7.5v2.131c0 4.142-3.358 7.5-7.5 7.5z"/><path d="m221.385 321.173c-4.142 0-7.5-3.358-7.5-7.5v-2.131c0-4.142 3.358-7.5 7.5-7.5s7.5 3.358 7.5 7.5v2.131c0 4.142-3.358 7.5-7.5 7.5z"/><path d="m191.385 350.938c-4.142 0-7.5-3.358-7.5-7.5v-2.131c0-4.142 3.358-7.5 7.5-7.5s7.5 3.358 7.5 7.5v2.131c0 4.142-3.358 7.5-7.5 7.5z"/><path d="m221.385 350.938c-4.142 0-7.5-3.358-7.5-7.5v-2.131c0-4.142 3.358-7.5 7.5-7.5s7.5 3.358 7.5 7.5v2.131c0 4.142-3.358 7.5-7.5 7.5z"/><path d="m191.385 380.703c-4.142 0-7.5-3.358-7.5-7.5v-2.131c0-4.142 3.358-7.5 7.5-7.5s7.5 3.358 7.5 7.5v2.131c0 4.142-3.358 7.5-7.5 7.5z"/><path d="m221.385 380.703c-4.142 0-7.5-3.358-7.5-7.5v-2.131c0-4.142 3.358-7.5 7.5-7.5s7.5 3.358 7.5 7.5v2.131c0 4.142-3.358 7.5-7.5 7.5z"/><path d="m191.385 410.468c-4.142 0-7.5-3.358-7.5-7.5v-2.131c0-4.142 3.358-7.5 7.5-7.5s7.5 3.358 7.5 7.5v2.131c0 4.142-3.358 7.5-7.5 7.5z"/><path d="m221.385 410.468c-4.142 0-7.5-3.358-7.5-7.5v-2.131c0-4.142 3.358-7.5 7.5-7.5s7.5 3.358 7.5 7.5v2.131c0 4.142-3.358 7.5-7.5 7.5z"/><path d="m191.385 440.233c-4.142 0-7.5-3.358-7.5-7.5v-2.131c0-4.142 3.358-7.5 7.5-7.5s7.5 3.358 7.5 7.5v2.131c0 4.142-3.358 7.5-7.5 7.5z"/><path d="m221.385 440.233c-4.142 0-7.5-3.358-7.5-7.5v-2.131c0-4.142 3.358-7.5 7.5-7.5s7.5 3.358 7.5 7.5v2.131c0 4.142-3.358 7.5-7.5 7.5z"/><path d="m191.385 469.999c-4.142 0-7.5-3.358-7.5-7.5v-2.131c0-4.142 3.358-7.5 7.5-7.5s7.5 3.358 7.5 7.5v2.131c0 4.142-3.358 7.5-7.5 7.5z"/><path d="m221.385 469.999c-4.142 0-7.5-3.358-7.5-7.5v-2.131c0-4.142 3.358-7.5 7.5-7.5s7.5 3.358 7.5 7.5v2.131c0 4.142-3.358 7.5-7.5 7.5z"/></g></svg>