<svg id="isometric" enable-background="new 0 0 430 430" height="512" viewBox="0 0 430 430" width="512" xmlns="http://www.w3.org/2000/svg"><g><path d="m401.4 334.7-37-16.7c-.9-.4-2-.4-2.9 0l-37 16.7-72.5 32.8-28.5-12.9 66.9-30.3c2.7-1.1 2.7-5.3 0-6.4 0 0-37-16.7-37-16.7-.2-.1-.5-.2-.7-.2-.7-.2-1.5-.1-2.2.2l-72.5 32.9-28.5-12.9c19.8-9 83.2-37.6 103.9-47 2.7-1.1 2.7-5.3 0-6.4 0 0-37-16.7-37-16.7-.9-.4-2-.4-2.9 0l-185 83.6c-1.3.6-2.1 1.8-2.1 3.2s.8 2.6 2.1 3.2l37 16.7c.9.4 2 .4 2.9 0l35.6-16.1 35.6 16.1c.5.2 1 .3 1.4.3s1-.1 1.4-.3l35.6-16.1 28.5 12.9-29.9 13.5c-1.3.6-2.1 1.8-2.1 3.2s.8 2.6 2.1 3.2l29.9 13.5-29.9 13.5c-1.3.6-2.1 1.8-2.1 3.2s.8 2.6 2.1 3.2l37 16.7c.9.4 2 .4 2.9 0l185-83.6c2.6-1 2.7-5.2-.1-6.3zm-260.4 16.1-35.6-16.1c-.9-.4-2-.4-2.9 0l-35.5 16.1-28.5-12.9 173-78.2v11.6c0 1.9 1.6 3.5 3.5 3.5s3.5-1.6 3.5-3.5v-11.6l25 11.3-103.9 47c-1.3.6-2.1 1.9-2.1 3.3v17c.1 4.6 6.9 4.6 7 0v-11.6l25 11.3zm45.5-12.9 62-28v11.5c0 1.9 1.6 3.5 3.5 3.5s3.5-1.6 3.5-3.5v-11.5l25 11.3-65.5 29.6zm28.5 79.8-28.5-12.9 25-11.3v11.5c.1 4.6 6.9 4.6 7 0v-16.9c0-.3 0-.5-.1-.8-.2-1.1-.9-2-2-2.5l-29.9-13.5 25-11.3v11.5c0 1.9 1.6 3.5 3.5 3.5s3.5-1.6 3.5-3.5v-11.5l30 13.6v14.7c0 1.9 1.6 3.5 3.5 3.5s3.5-1.6 3.5-3.5v-14.7l71.9-32.5 32-14.5v11.6c0 1.9 1.6 3.5 3.5 3.5s3.5-1.6 3.5-3.5v-11.7l25.1 11.3z"/><path d="m403 158.7c0-1.7-1.3-3-3-3s-3 1.3-3 3v43.2c0 1.7 1.3 3 3 3s3-1.3 3-3z"/><path d="m400 216.8c-1.7 0-3 1.3-3 3v9.1c0 1.7 1.3 3 3 3s3-1.3 3-3v-9.1c0-1.7-1.4-3-3-3z"/><path d="m33 160.3c0-1.7-1.3-3-3-3s-3 1.3-3 3v15.2c0 1.7 1.3 3 3 3s3-1.3 3-3z"/><path d="m107 160.3c0-1.7-1.3-3-3-3s-3 1.3-3 3v15.2c0 1.7 1.3 3 3 3s3-1.3 3-3z"/><path d="m69.8 174.6c0-1.7-1.3-3-3-3s-3 1.3-3 3v53.2c0 1.7 1.3 3 3 3s3-1.3 3-3z"/><path d="m66.8 242.8c-1.7 0-3 1.3-3 3v9.1c0 1.7 1.3 3 3 3s3-1.3 3-3v-9.1c0-1.7-1.3-3-3-3z"/><path d="m104 189.6c-1.7 0-3 1.3-3 3s1.3 3 3 3 3-1.3 3-3-1.3-3-3-3z"/><path d="m30 189.6c-1.7 0-3 1.3-3 3s1.3 3 3 3 3-1.3 3-3-1.4-3-3-3z"/><path d="m64.9 156.7c.7.3 1.4.4 2.1.4s1.4-.1 2.1-.4l34.9-15.8 34.9 15.8c.7.3 1.4.4 2.1.4s1.4-.1 2.1-.4l29.9-13.5v59.1c0 2 1.2 3.7 2.9 4.6l37 16.7c.7.3 1.4.4 2.1.4s1.4-.1 2.1-.4l184.9-83.6c1.8-.8 3-2.6 2.9-4.6l-.3-41.7c0-1.9-1.1-3.7-2.9-4.5l-36.7-16.8c-.7-.3-1.4-.5-2.1-.5s-1.4.1-2.1.4l-66.8 30.3v-25.7c0-2-1.2-3.7-2.9-4.6l-34.1-15.4v-30.2c0-2-1.1-3.7-2.9-4.6l-37-16.8c-.7-.3-1.4-.4-2.1-.4s-1.4.1-2.1.4l-184.9 83.8c-1.8.8-2.9 2.6-2.9 4.6v41.8c0 2 1.2 3.7 2.9 4.6zm37.1-22.6-33 14.9v-37.4l33-14.9zm37 14.9-33-14.9v-37.4l33 14.9zm37-14.9-33 14.9v-37.4l33-14.9zm37 81.8-33-14.9v-37.4l33 14.9zm185-81.8-181 81.8v-37.4l181-81.8zm-35-55 32.1 14.5-180.1 81.4-32.1-14.5 32.9-14.9c.7-.3 1.2-1.1 1.2-1.9s-.5-1.5-1.2-1.8l-32.9-14.9 32.1-14.5 36.2 16.4c.5.2 1.1.2 1.6 0 23.5-10.7 85.9-38.9 110.2-49.8zm-183 78.3v-22-5.2l30.1 13.6zm0-33.5v-27.2l30.1 13.6zm107-14.9-35 15.8-32.1-14.5 67.1-30.3zm-2.9-32.1-69.1 31.2-32.1-14.5 69.1-31.3zm-34.1-18.1-72 32.6c-3.3-1.5-29.7-13.4-32.1-14.5 7.8-3.5 93.9-42.4 104.1-47zm-35-46.7 32.1 14.5c-14.6 6.6-94.3 42.7-107 48.4-1.5.6-1.5 3 0 3.7 6 2.7 26.6 12 32.9 14.9l-32 14.5-36.2-16.4c-.3-.1-.5-.2-.8-.2s-.6.1-.8.2l-36.2 16.4-32.1-14.5zm-183 84.6 33 14.9v37.4l-33-14.9z"/></g></svg>